<svg class="diagram-root" style="background: #f5f6f6" xmlns="http://www.w3.org/2000/svg" xmlns:xlink="http://www.w3.org/1999/xlink"><style>.diagram-root { font-family: "Helvetica Neue", sans-serif; font-size: 12px; } .t { overflow: visible; } .t-bg { y: 40; fill: #fff;   } .th { fill: #005aa0;   } .tht { fill: #fff; font-size: 14px;  } .tf { fill: #323c46; overflow: visible; } .tf.pk { fill: #005aa0; font-weight: bold; } .tf.fk { font-weight: bold; } .ty { fill: #adb1b5; font-weight: normal; text-anchor: end; } .r { fill: transparent; stroke: #c3c3c3; stroke-width: 1; } .l { stroke: 1; } .i { fill: #c2c7ce; stroke: #c2c7ce; } .i.ix { fill: #afb3b6; stroke: #000; } .fa { fill: transparent; overflow: visible; } .fa .bg.hover { fill: #f7f7f7; } .c { cy: 12; r: 4; stroke: #d2d2dc; fill: #d2d2dc; } .hr { fill: transparent; stroke: #323c46; stroke-opacity: 0.035; stroke-width: 13; } .dc { stroke: #fa5a3c; fill: #fa5a3c; } .x { stroke: white; stroke-width: 1; } .hl .th { fill: #1b9bff; } .hl .tht {  } .fhl .bg { fill: #e7f4ff; } .fhls .bg {  } .r.hl { stroke: #1b9bff; } .dim { opacity: 0.25; }</style><g class="drawing-wrapper" transform="translate(85, 107.14285714285715) scale(1,1)"><g class="rs"><path d="M 369.4 22.86 m -1, 0 a 1,1 0 1,0 2,0 a 1,1 0 1,0 -2,0 M 369.4 22.86 m -0.5, 0 a 0.5,0.5 0 1,0 1,0 a 0.5,0.5 0 1,0 -1,0  M369.4 22.86 L369.4 22.86 381.4 22.86 M 369.4 28.86 m -1, 0 a 1,1 0 1,0 2,0 a 1,1 0 1,0 -2,0 M 369.4 28.86 m -0.5, 0 a 0.5,0.5 0 1,0 1,0 a 0.5,0.5 0 1,0 -1,0  M369.4 28.86 L369.4 28.86 376.4 22.86 369.4 16.86 M 369.4 16.86 m -1, 0 a 1,1 0 1,0 2,0 a 1,1 0 1,0 -2,0 M 369.4 16.86 m -0.5, 0 a 0.5,0.5 0 1,0 1,0 a 0.5,0.5 0 1,0 -1,0  M381.4 22.86 Q 405.8 22.86, 430.2 36.22 T 479 49.57 M 491 49.57 m -1, 0 a 1,1 0 1,0 2,0 a 1,1 0 1,0 -2,0 M 491 49.57 m -0.5, 0 a 0.5,0.5 0 1,0 1,0 a 0.5,0.5 0 1,0 -1,0  M491 49.57 L491 49.57 479 49.57 M485 55.57 L485 55.57 485 43.57" id="h2709566940" class="r"></path><path d="M 196 47.86 m -1, 0 a 1,1 0 1,0 2,0 a 1,1 0 1,0 -2,0 M 196 47.86 m -0.5, 0 a 0.5,0.5 0 1,0 1,0 a 0.5,0.5 0 1,0 -1,0  M196 47.86 L196 47.86 184 47.86 M 196 53.86 m -1, 0 a 1,1 0 1,0 2,0 a 1,1 0 1,0 -2,0 M 196 53.86 m -0.5, 0 a 0.5,0.5 0 1,0 1,0 a 0.5,0.5 0 1,0 -1,0  M196 53.86 L196 53.86 189 47.86 196 41.86 M 196 41.86 m -1, 0 a 1,1 0 1,0 2,0 a 1,1 0 1,0 -2,0 M 196 41.86 m -0.5, 0 a 0.5,0.5 0 1,0 1,0 a 0.5,0.5 0 1,0 -1,0  M184 47.86 Q 168.38 47.86, 152.75 87.43 T 121.5 127 M 109.5 127 m -1, 0 a 1,1 0 1,0 2,0 a 1,1 0 1,0 -2,0 M 109.5 127 m -0.5, 0 a 0.5,0.5 0 1,0 1,0 a 0.5,0.5 0 1,0 -1,0  M109.5 127 L109.5 127 121.5 127 M115.5 133 L115.5 133 115.5 121" id="h3445909116" class="r"></path><path d="M 392.08 231.71 m -1, 0 a 1,1 0 1,0 2,0 a 1,1 0 1,0 -2,0 M 392.08 231.71 m -0.5, 0 a 0.5,0.5 0 1,0 1,0 a 0.5,0.5 0 1,0 -1,0  M392.08 231.71 L392.08 231.71 404.08 231.71 M 392.08 237.71 m -1, 0 a 1,1 0 1,0 2,0 a 1,1 0 1,0 -2,0 M 392.08 237.71 m -0.5, 0 a 0.5,0.5 0 1,0 1,0 a 0.5,0.5 0 1,0 -1,0  M392.08 237.71 L392.08 237.71 399.08 231.71 392.08 225.71 M 392.08 225.71 m -1, 0 a 1,1 0 1,0 2,0 a 1,1 0 1,0 -2,0 M 392.08 225.71 m -0.5, 0 a 0.5,0.5 0 1,0 1,0 a 0.5,0.5 0 1,0 -1,0  M404.08 231.71 Q 422.81 231.71, 441.54 140.64 T 479 49.57 M 491 49.57 m -1, 0 a 1,1 0 1,0 2,0 a 1,1 0 1,0 -2,0 M 491 49.57 m -0.5, 0 a 0.5,0.5 0 1,0 1,0 a 0.5,0.5 0 1,0 -1,0  M491 49.57 L491 49.57 479 49.57 M485 55.57 L485 55.57 485 43.57" id="h1625972740" class="r"></path><path d="M 196 256.71000000000004 m -1, 0 a 1,1 0 1,0 2,0 a 1,1 0 1,0 -2,0 M 196 256.71000000000004 m -0.5, 0 a 0.5,0.5 0 1,0 1,0 a 0.5,0.5 0 1,0 -1,0  M196 256.71000000000004 L196 256.71000000000004 184 256.71000000000004 M 196 262.71000000000004 m -1, 0 a 1,1 0 1,0 2,0 a 1,1 0 1,0 -2,0 M 196 262.71000000000004 m -0.5, 0 a 0.5,0.5 0 1,0 1,0 a 0.5,0.5 0 1,0 -1,0  M196 262.71000000000004 L196 262.71000000000004 189 256.71000000000004 196 250.71000000000004 M 196 250.71000000000004 m -1, 0 a 1,1 0 1,0 2,0 a 1,1 0 1,0 -2,0 M 196 250.71000000000004 m -0.5, 0 a 0.5,0.5 0 1,0 1,0 a 0.5,0.5 0 1,0 -1,0  M184 256.71000000000004 Q 168.38 256.71000000000004, 152.75 191.86 T 121.5 127 M 109.5 127 m -1, 0 a 1,1 0 1,0 2,0 a 1,1 0 1,0 -2,0 M 109.5 127 m -0.5, 0 a 0.5,0.5 0 1,0 1,0 a 0.5,0.5 0 1,0 -1,0  M109.5 127 L109.5 127 121.5 127 M115.5 133 L115.5 133 115.5 121" id="h2116930255" class="r"></path><path d="M 661.49 49.57 m -1, 0 a 1,1 0 1,0 2,0 a 1,1 0 1,0 -2,0 M 661.49 49.57 m -0.5, 0 a 0.5,0.5 0 1,0 1,0 a 0.5,0.5 0 1,0 -1,0  M661.49 49.57 L661.49 49.57 673.49 49.57 M667.49 55.57 L667.49 55.57 667.49 43.57 M673.49 49.57 Q 688.55 49.57, 703.6 14.72 T 733.71 -20.14 M 745.71 -20.14 m -1, 0 a 1,1 0 1,0 2,0 a 1,1 0 1,0 -2,0 M 745.71 -20.14 m -0.5, 0 a 0.5,0.5 0 1,0 1,0 a 0.5,0.5 0 1,0 -1,0  M745.71 -20.14 L745.71 -20.14 733.71 -20.14 M739.71 -14.14 L739.71 -14.14 739.71 -26.14" id="h302620712" class="r"></path><path d="M 661.49 74.57 m -1, 0 a 1,1 0 1,0 2,0 a 1,1 0 1,0 -2,0 M 661.49 74.57 m -0.5, 0 a 0.5,0.5 0 1,0 1,0 a 0.5,0.5 0 1,0 -1,0  M661.49 74.57 L661.49 74.57 673.49 74.57 M 661.49 80.57 m -1, 0 a 1,1 0 1,0 2,0 a 1,1 0 1,0 -2,0 M 661.49 80.57 m -0.5, 0 a 0.5,0.5 0 1,0 1,0 a 0.5,0.5 0 1,0 -1,0  M661.49 80.57 L661.49 80.57 668.49 74.57 661.49 68.57 M 661.49 68.57 m -1, 0 a 1,1 0 1,0 2,0 a 1,1 0 1,0 -2,0 M 661.49 68.57 m -0.5, 0 a 0.5,0.5 0 1,0 1,0 a 0.5,0.5 0 1,0 -1,0  M673.49 74.57 Q 688.73 74.57, 703.96 135.79 T 734.43 197 M 746.43 197 m -1, 0 a 1,1 0 1,0 2,0 a 1,1 0 1,0 -2,0 M 746.43 197 m -0.5, 0 a 0.5,0.5 0 1,0 1,0 a 0.5,0.5 0 1,0 -1,0  M746.43 197 L746.43 197 734.43 197 M740.43 203 L740.43 203 740.43 191" id="h2701026381" class="r"></path></g><g class="hrs"></g><g class="ts"><svg width="172.5" height="100" x="-63" y="70" id="h4228057201" class="t"><rect height="40" width="172.5" class="th"></rect><text x="13" y="25" class="tht">Dpartment</text><rect height="60" width="172.5" class="t-bg"></rect><text x="13" y="61" class="tf pk">Dept_no<tspan x="159.5" class="ty">Varchar(4)</tspan></text><path d="M7,14A2,2 0 0,1 5,12A2,2 0 0,1 7,10A2,2 0 0,1 9,12A2,2 0 0,1 7,14M12.65,10C11.83,7.67 9.61,6 7, 6A6, 6 0 0, 0 1, 12A6, 6 0 0, 0 7, 18C9.61, 18 11.83, 16.33 12.65, 14H17V18H21V14H23V10H12.65Z" class="i pk" transform="translate(83.701171875, 48) scale(0.65)"></path><text x="13" y="86" class="tf">Dept_Name<tspan x="159.5" class="ty">Varchar(20)</tspan></text></svg><svg width="173.4" height="125" x="196" y="-59.14" id="h3353995054" class="t"><rect height="40" width="173.4" class="th"></rect><text x="13" y="25" class="tht">Dept_Emp</text><rect height="85" width="173.4" class="t-bg"></rect><text x="13" y="61" class="tf pk">Dept_Emp_no<tspan x="160.4" class="ty">Serial</tspan></text><path d="M7,14A2,2 0 0,1 5,12A2,2 0 0,1 7,10A2,2 0 0,1 9,12A2,2 0 0,1 7,14M12.65,10C11.83,7.67 9.61,6 7, 6A6, 6 0 0, 0 1, 12A6, 6 0 0, 0 7, 18C9.61, 18 11.83, 16.33 12.65, 14H17V18H21V14H23V10H12.65Z" class="i pk" transform="translate(109.7203125, 48) scale(0.65)"></path><text x="13" y="86" class="tf fk">Emp_no<tspan x="160.4" class="ty">int</tspan></text><text x="13" y="111" class="tf fk">Dept_no<tspan x="160.4" class="ty">Varchar(4)</tspan></text></svg><svg width="196.08" height="125" x="196" y="149.71" id="h754932316" class="t"><rect height="40" width="196.08" class="th"></rect><text x="13" y="25" class="tht">Dept_Manager</text><rect height="85" width="196.08" class="t-bg"></rect><text x="13" y="61" class="tf pk">Dept_Manager_no<tspan x="183.08" class="ty">Serial</tspan></text><path d="M7,14A2,2 0 0,1 5,12A2,2 0 0,1 7,10A2,2 0 0,1 9,12A2,2 0 0,1 7,14M12.65,10C11.83,7.67 9.61,6 7, 6A6, 6 0 0, 0 1, 12A6, 6 0 0, 0 7, 18C9.61, 18 11.83, 16.33 12.65, 14H17V18H21V14H23V10H12.65Z" class="i pk" transform="translate(132.4003125, 48) scale(0.65)"></path><text x="13" y="86" class="tf fk">Emp_no<tspan x="183.08" class="ty">int</tspan></text><text x="13" y="111" class="tf fk">Dept_no<tspan x="183.08" class="ty">Varchar(4)</tspan></text></svg><svg width="170.49" height="225" x="491" y="-7.43" id="h3299212598" class="t"><rect height="40" width="170.49" class="th"></rect><text x="13" y="25" class="tht">Employees</text><rect height="185" width="170.49" class="t-bg"></rect><text x="13" y="61" class="tf pk">emp_no<tspan x="157.49" class="ty">int</tspan></text><path d="M7,14A2,2 0 0,1 5,12A2,2 0 0,1 7,10A2,2 0 0,1 9,12A2,2 0 0,1 7,14M12.65,10C11.83,7.67 9.61,6 7, 6A6, 6 0 0, 0 1, 12A6, 6 0 0, 0 7, 18C9.61, 18 11.83, 16.33 12.65, 14H17V18H21V14H23V10H12.65Z" class="i pk" transform="translate(124.81617187500001, 48) scale(0.65)"></path><text x="13" y="86" class="tf fk">Emp_title_ID<tspan x="157.49" class="ty">Varchar(5)</tspan></text><text x="13" y="111" class="tf">Brith_Date<tspan x="157.49" class="ty">Date</tspan></text><text x="13" y="136" class="tf">First_name<tspan x="157.49" class="ty">Varchar(30)</tspan></text><text x="13" y="161" class="tf">Last_name<tspan x="157.49" class="ty">Varchar(30)</tspan></text><text x="13" y="186" class="tf">Sex<tspan x="157.49" class="ty">Varchar(1)</tspan></text><text x="13" y="211" class="tf">Hire_date<tspan x="157.49" class="ty">Date</tspan></text></svg><svg width="123.37" height="100" x="745.71" y="-77.14" id="h3858243705" class="t"><rect height="40" width="123.37" class="th"></rect><text x="13" y="25" class="tht">Salaries</text><rect height="60" width="123.37" class="t-bg"></rect><text x="13" y="61" class="tf pk">Emp_no<tspan x="110.37" class="ty">int</tspan></text><path d="M7,14A2,2 0 0,1 5,12A2,2 0 0,1 7,10A2,2 0 0,1 9,12A2,2 0 0,1 7,14M12.65,10C11.83,7.67 9.61,6 7, 6A6, 6 0 0, 0 1, 12A6, 6 0 0, 0 7, 18C9.61, 18 11.83, 16.33 12.65, 14H17V18H21V14H23V10H12.65Z" class="i pk" transform="translate(77.696171875, 48) scale(0.65)"></path><text x="13" y="86" class="tf">Salary<tspan x="110.37" class="ty">int</tspan></text></svg><svg width="162.7" height="100" x="746.43" y="140" id="h1984824179" class="t"><rect height="40" width="162.7" class="th"></rect><text x="13" y="25" class="tht">Title</text><rect height="60" width="162.7" class="t-bg"></rect><text x="13" y="61" class="tf pk">Title_ID<tspan x="149.7" class="ty">Varchar(5)</tspan></text><path d="M7,14A2,2 0 0,1 5,12A2,2 0 0,1 7,10A2,2 0 0,1 9,12A2,2 0 0,1 7,14M12.65,10C11.83,7.67 9.61,6 7, 6A6, 6 0 0, 0 1, 12A6, 6 0 0, 0 7, 18C9.61, 18 11.83, 16.33 12.65, 14H17V18H21V14H23V10H12.65Z" class="i pk" transform="translate(73.90117187499999, 48) scale(0.65)"></path><text x="13" y="86" class="tf">Title<tspan x="149.7" class="ty">Varchar(20)</tspan></text></svg></g></g><text class="qdbd-link" x="10" y="20">www.quickdatabasediagrams.com</text></svg>